<svg xmlns="http://www.w3.org/2000/svg" viewBox="0 0 233.1 134.69"><defs><style>.cls-1{fill:#26bfd0;}.cls-2{fill:#f3dbbd;}.cls-3{fill:#fceedf;}.cls-4{fill:#ccc;}.cls-5{fill:#84d0e3;}.cls-6{fill:#fff;}.cls-7{fill:#2075bc;}.cls-8{fill:#231f20;opacity:0.26;}.cls-9{fill:#162c47;}.cls-10{fill:#102338;}</style></defs><title>Asset 2</title><g id="Layer_2" data-name="Layer 2"><g id="Layer_1-2" data-name="Layer 1"><path class="cls-1" d="M189.85,82.68s-9.23,35.39-50.86,47.64c-47.3,13.92-74.4-9.23-81.13-16.62S189.85,82.68,189.85,82.68Z"/><path class="cls-2" d="M233,53C224.88,47.73,199,42.54,104.77,63.08,26.3,80.19,9.05,95.73,0,109.06c.56,2,43.76,27.67,128.7,10.64C203.68,104.67,234.67,58.39,233,53Z"/><path class="cls-3" d="M125.79,117.35c72-14.43,103.41-57.65,104.35-65.85A18,18,0,0,1,233,53c1.63,5.4-29.36,51.68-104.34,66.71C43.76,136.73.56,111,0,109.06l.11-.15C11.24,115.3,53.31,131.88,125.79,117.35Z"/><rect class="cls-4" x="123.85" y="14.75" width="21.77" height="7.36" transform="translate(77.16 141.63) rotate(-72.74)"/><rect class="cls-4" x="59.66" y="22.8" width="7.36" height="25.51" transform="translate(-7.53 51.49) rotate(-41.98)"/><path class="cls-5" d="M129.69,79.11c-24.58,7.13-71.58,5.83-75.46,3.94s2.39-49.21,49.82-57.76,72.2,24.79,72.05,28.9S155,71.77,129.69,79.11Z"/><path class="cls-6" d="M103,28.46C74.13,33.67,60.53,53.24,55.17,68.18,59.68,53,73.09,30.87,104.05,25.29c47.43-8.57,72.2,24.79,72.05,28.9a4.23,4.23,0,0,1-1.27,2.24C172.39,49.71,147.83,20.37,103,28.46Z"/><path class="cls-7" d="M129.94,8a8,8,0,1,0,8-8A8,8,0,0,0,129.94,8Z"/><path class="cls-7" d="M46.78,26.08a8,8,0,1,0,8-8A8,8,0,0,0,46.78,26.08Z"/><path class="cls-8" d="M175.94,82.74a12.81,12.81,0,1,0,0-18.11A12.79,12.79,0,0,0,175.94,82.74Z"/><path class="cls-9" d="M175.51,81a12.81,12.81,0,1,0,0-18.11A12.79,12.79,0,0,0,175.51,81Z"/><path class="cls-10" d="M171.77,71.42a12.81,12.81,0,0,0,25.59,0,12.81,12.81,0,1,1-25.59,0Z"/><path class="cls-5" d="M177.58,79a9.89,9.89,0,1,0,0-14A9.89,9.89,0,0,0,177.58,79Z"/><path class="cls-8" d="M114.89,108.37a12.81,12.81,0,1,0,0-18.12A12.82,12.82,0,0,0,114.89,108.37Z"/><path class="cls-9" d="M114.46,106.66a12.81,12.81,0,1,0,0-18.12A12.82,12.82,0,0,0,114.46,106.66Z"/><path class="cls-10" d="M110.72,97a12.81,12.81,0,0,0,25.6,0,12.81,12.81,0,1,1-25.6,0Z"/><path class="cls-5" d="M116.53,104.59a9.89,9.89,0,1,0,0-14A9.89,9.89,0,0,0,116.53,104.59Z"/><path class="cls-8" d="M41.47,112a12.82,12.82,0,1,0,0-18.13A12.84,12.84,0,0,0,41.47,112Z"/><path class="cls-9" d="M41,110.24a12.81,12.81,0,1,0,0-18.12A12.82,12.82,0,0,0,41,110.24Z"/><path class="cls-10" d="M37.3,100.62a12.81,12.81,0,0,0,25.6,0,12.81,12.81,0,1,1-25.6,0Z"/><path class="cls-5" d="M43.11,108.17a9.88,9.88,0,1,0,0-14A9.87,9.87,0,0,0,43.11,108.17Z"/></g></g></svg>