<svg xmlns="http://www.w3.org/2000/svg" xmlns:xlink="http://www.w3.org/1999/xlink" viewBox="0 0 369.14 254.22"><defs><style>.cls-1{fill:#2a3c90;}.cls-2{fill:#f3dbbd;}.cls-3{fill:#231f20;opacity:0.26;}.cls-4{fill:#162c47;}.cls-5{fill:#102338;}.cls-6{fill:#84d0e3;}.cls-7{fill:#2075bc;}.cls-8{fill:url(#linear-gradient);}.cls-9{fill:url(#linear-gradient-2);}.cls-10{fill:#ede5da;}.cls-11{opacity:0.69;}.cls-12{fill:#fff;}</style><linearGradient id="linear-gradient" x1="765.43" y1="302.27" x2="840.9" y2="302.27" gradientTransform="translate(-678.62 -266.6) rotate(11.93)" gradientUnits="userSpaceOnUse"><stop offset="0" stop-color="#ffc434"/><stop offset="0.15" stop-color="#febb30"/><stop offset="0.41" stop-color="#faa225"/><stop offset="0.55" stop-color="#f7911e"/><stop offset="0.79" stop-color="#f78f1e"/><stop offset="0.88" stop-color="#f6881f"/><stop offset="0.94" stop-color="#f47d20"/><stop offset="0.99" stop-color="#f26c22"/><stop offset="1" stop-color="#f26922"/></linearGradient><linearGradient id="linear-gradient-2" x1="790.7" y1="327.54" x2="866.16" y2="327.54" xlink:href="#linear-gradient"/></defs><title>Asset 3</title><g id="Layer_2" data-name="Layer 2"><g id="Layer_1-2" data-name="Layer 1"><polygon class="cls-1" points="229.07 131.59 224.35 196.38 182.08 223.9 173.91 167.5 229.07 131.59"/><polygon class="cls-1" points="196.92 82.21 135.76 60.32 93.5 87.84 141.77 118.12 196.92 82.21"/><path class="cls-2" d="M369.14,5.23S235.89-40.57,102,138.84c0,0,14.85,12.3,23.24,25.18s13.63,31.45,13.63,31.45C357.12,145.62,369.14,5.23,369.14,5.23Z"/><path class="cls-3" d="M283.21,105.11a34.37,34.37,0,1,1,10.05-47.57A34.37,34.37,0,0,1,283.21,105.11Z"/><path class="cls-4" d="M285.28,100.85a34.37,34.37,0,1,1,10.06-47.56A34.37,34.37,0,0,1,285.28,100.85Z"/><path class="cls-5" d="M300.44,77.68a34.37,34.37,0,0,1-67.2-14.19,34.37,34.37,0,1,0,67.2,14.19Z"/><path class="cls-6" d="M281,94.26a26.52,26.52,0,1,1,7.76-36.69A26.5,26.5,0,0,1,281,94.26Z"/><path class="cls-7" d="M311.35,42.86a122.64,122.64,0,0,0,29.44,31.75c25.67-38.19,28.35-69.38,28.35-69.38s-29.6-10.17-74.92-2.14A122.92,122.92,0,0,0,311.35,42.86Z"/><path class="cls-7" d="M202.14,41c-4.53,3-9.11,6.15-13.73,9.56-.18,18.18,6.29,39.68,19.34,59.72s30.1,34.67,46.8,41.86c5-2.85,9.73-5.76,14.29-8.69-16.89-7.1-34.16-21.82-47.37-42.1S201.8,59.35,202.14,41Z"/><path class="cls-7" d="M210.54,35.7q-1.89,1.15-3.79,2.35c.13,18.38,6.76,39.89,19.85,60s30.07,34.85,46.83,42.41c1.25-.83,2.47-1.67,3.68-2.51-16.72-7.58-33.67-22.31-46.72-42.37S210.7,54.06,210.54,35.7Z"/><path class="cls-8" d="M89.43,166.05c-20.07-1.88-39.5,12.09-39.5,12.09l13.54-2.67L0,224.28,70.31,186,62.4,197.28S83,185.16,89.43,166.05Z"/><path class="cls-9" d="M108.93,196c-20.07-1.88-39.5,12.09-39.5,12.09L83,205.41,19.5,254.22l70.31-38.3-7.92,11.3S102.53,215.1,108.93,196Z"/><polygon class="cls-7" points="165.94 91.44 104.76 69.56 62.5 97.08 110.78 127.36 165.94 91.44"/><polygon class="cls-7" points="208.09 156.19 203.36 220.99 161.1 248.51 152.93 192.11 208.09 156.19"/><path class="cls-4" d="M94.58,164.31c2.48,3.79,4.73,7.63,6.8,11.49.28-.15.55-.3.82-.47l24.55-16a13.74,13.74,0,1,0-15-23l-24.55,16c-.28.19-.54.39-.81.59Q90.68,158.32,94.58,164.31Z"/><path class="cls-10" d="M96.92,162.79c-2.6-4-5.34-7.8-8.18-11.43.26-.19.53-.39.81-.58l-2.34,1.52c-.28.19-.54.39-.81.59q4.27,5.43,8.18,11.42c2.48,3.79,4.73,7.63,6.8,11.49.28-.15.55-.3.82-.47l2.34-1.52c-.27.17-.54.32-.81.47Q100.61,168.49,96.92,162.79Z"/><polygon class="cls-7" points="120.55 163.38 105.56 140.36 111.7 136.35 126.69 159.38 120.55 163.38"/><rect class="cls-7" x="95.9" y="152.26" width="27.47" height="3.66" transform="translate(178.93 -21.88) rotate(56.92)"/><path class="cls-4" d="M113,192.55q3.7,5.69,6.8,11.49c.28-.15.55-.3.82-.47l24.55-16a13.74,13.74,0,0,0-15-23l-24.55,16c-.29.18-.54.38-.81.58Q109.07,186.56,113,192.55Z"/><path class="cls-10" d="M115.31,191c-2.6-4-5.34-7.79-8.18-11.42.26-.19.53-.39.81-.58l-2.34,1.53c-.29.18-.54.38-.81.58q4.27,5.43,8.18,11.42,3.7,5.69,6.8,11.49c.28-.15.55-.3.82-.47l2.34-1.52c-.27.17-.54.31-.81.47Q119,196.73,115.31,191Z"/><rect class="cls-7" x="120.78" y="174.45" width="27.47" height="7.33" transform="translate(210.35 -31.81) rotate(56.92)"/><rect class="cls-7" x="114.29" y="180.5" width="27.47" height="3.67" transform="translate(210.93 -24.46) rotate(56.92)"/><g class="cls-11"><path class="cls-12" d="M105.75,75l10.84,3.87,20.16-13.11L165,75.8q12.36-11,24.42-19.83h0l0,0q3.39-2.51,6.75-4.84l.45-.3q3.27-2.28,6.49-4.39h0C240.93,21.56,275.58,11,303.4,7.2a.64.64,0,0,1,.2,0c2.62-.36,5.18-.65,7.68-.89l.29,0c2.48-.23,4.9-.42,7.25-.55h.26c2.37-.14,4.67-.22,6.89-.26h.14a165.57,165.57,0,0,1,32.23,2.4h.06c1.23.23,2.37.45,3.42.67l.12,0c1,.22,1.95.42,2.79.63l.14,0c.82.19,1.55.38,2.18.54l.13,0,1.25.34c.1-.59.21-1.19.29-1.68a.68.68,0,0,1,0-.14c.1-.62.17-1.17.23-1.6a.2.2,0,0,0,0-.07c.06-.42.1-.77.12-1s0-.07,0-.12,0-.26,0-.26l-.25-.08-.11,0-.95-.29-.07,0-1.57-.43-.13,0c-.63-.17-1.36-.35-2.18-.54l-.14,0L361,3.13l-.12,0c-1.05-.21-2.19-.44-3.42-.66h-.06A165.53,165.53,0,0,0,325.13,0H325c-2.22,0-4.52.13-6.88.26l-.27,0c-2.35.13-4.76.32-7.25.55l-.29,0c-2.49.23-5.06.53-7.68.88l-.2,0C274.59,5.59,240,16.17,202.14,41h0q-3.23,2.13-6.49,4.39l-.44.3c-2.25,1.57-4.5,3.16-6.76,4.83l0,0h0Q176.35,59.47,164,70.42L135.76,60.33,115.61,73.44l-10.85-3.88L62.5,97.08l4.71,3Z"/><path class="cls-12" d="M153.92,197.49l.16-.11-.37.09,7.39,51,.19-.13Z"/></g></g></g></svg>